<svg width="1876" height="828" viewBox="0 0 1876 828" fill="none" xmlns="http://www.w3.org/2000/svg">
<path d="M0 753.558H1876M0 385.268H1876M0 692.177H1876M0 323.886H1876M0 630.795H1876M0 262.505H1876M0 569.413H1876M0 201.123H1876M0 508.032H1876M0 139.741H1876M0 446.65H1876M0 78.3596H1876M546.078 828L546.078 0M177.671 828L177.671 0M484.677 828L484.677 0M116.27 828L116.27 0M423.276 828L423.276 0M54.8691 828L54.869 0M361.875 828L361.875 0M300.474 828L300.473 0M239.072 828L239.072 0M1275.05 828L1275.05 0M906.646 828L906.646 0M1213.65 828L1213.65 0M845.245 828L845.245 0M1152.25 828L1152.25 0M783.844 828L783.844 0M1090.85 828L1090.85 0M722.443 828L722.443 0M1029.45 828L1029.45 0M661.042 828L661.042 0M968.047 828L968.047 0M599.641 828L599.641 0M1635.62 828L1635.62 0M1574.22 828L1574.22 0M1512.82 828L1512.82 0M1819.82 828L1819.82 0M1451.42 828L1451.42 0M1758.42 828L1758.42 0M1390.02 828L1390.02 0M1697.02 828L1697.02 0M1328.62 828L1328.62 0" stroke="url(#paint0_radial_646_97)" stroke-opacity="0.5"/>
<defs>
<radialGradient id="paint0_radial_646_97" cx="0" cy="0" r="1" gradientUnits="userSpaceOnUse" gradientTransform="translate(938 392) rotate(90) scale(411.5 932.336)">
<stop stop-color="white" stop-opacity="0.25"/>
<stop offset="1" stop-color="#19174F" stop-opacity="0"/>
</radialGradient>
</defs>
</svg>
