<svg width="174" height="32" viewBox="0 0 174 32" fill="none" xmlns="http://www.w3.org/2000/svg">
<g clip-path="url(#clip0_1_559)">
<path d="M15.8184 32C24.5548 32 31.6366 24.8368 31.6366 16V4.8C31.6366 3.52696 31.1366 2.30606 30.2467 1.40589C29.3567 0.505713 28.1497 0 26.8911 0L16.6093 0V7.0192C16.6093 8.6208 16.7058 10.28 17.5362 11.6432C18.1308 12.6202 18.9261 13.4564 19.8682 14.095C20.8104 14.7337 21.8773 15.1599 22.9967 15.3448L23.2996 15.3944C23.4245 15.4376 23.5329 15.5192 23.6096 15.6278C23.6864 15.7364 23.7277 15.8665 23.7277 16C23.7277 16.1335 23.6864 16.2636 23.6096 16.3722C23.5329 16.4808 23.4245 16.5624 23.2996 16.6056L22.9967 16.6552C21.3612 16.9254 19.851 17.7085 18.6792 18.8937C17.5074 20.0789 16.7333 21.6065 16.4661 23.2608L16.4171 23.5672C16.3744 23.6935 16.2938 23.8032 16.1864 23.8808C16.079 23.9585 15.9504 24.0002 15.8184 24.0002C15.6864 24.0002 15.5577 23.9585 15.4504 23.8808C15.343 23.8032 15.2624 23.6935 15.2197 23.5672L15.1706 23.2608C14.9878 22.1286 14.5664 21.0494 13.935 20.0964C13.3036 19.1435 12.4769 18.339 11.5111 17.7376C10.1634 16.8976 8.52304 16.8 6.93964 16.8H0.0191879C0.432833 25.2648 7.34775 32 15.8184 32Z" fill="white"/>
<path d="M0 15.2H6.93944C8.52284 15.2 10.1632 15.1024 11.5109 14.2624C12.5644 13.6058 13.4512 12.7088 14.1003 11.6432C14.9308 10.28 15.0273 8.6208 15.0273 7.0192V0H4.74545C3.48688 0 2.27986 0.505713 1.38991 1.40589C0.499966 2.30606 0 3.52696 0 4.8L0 15.2ZM36.7417 1.6C36.7417 2.02435 36.575 2.43131 36.2784 2.73137C35.9817 3.03143 35.5794 3.2 35.1599 3.2C34.7403 3.2 34.338 3.03143 34.0414 2.73137C33.7447 2.43131 33.578 2.02435 33.578 1.6C33.578 1.17565 33.7447 0.768687 34.0414 0.468629C34.338 0.168571 34.7403 0 35.1599 0C35.5794 0 35.9817 0.168571 36.2784 0.468629C36.575 0.768687 36.7417 1.17565 36.7417 1.6ZM167.444 9.6832C171.866 9.6832 174 12.8072 174 16.4256V23.2216H169.372V17.232C169.372 15.592 168.781 14.2384 167.084 14.2384C165.388 14.2384 164.822 15.592 164.822 17.232V23.2208H160.195V17.232C160.195 15.592 159.629 14.2384 157.932 14.2384C156.235 14.2384 155.644 15.592 155.644 17.232V23.2208H151.017V16.4248C151.017 12.8064 153.15 9.6824 157.572 9.6824C159.989 9.6824 161.737 10.6456 162.534 12.2336C163.382 10.6456 165.234 9.6816 167.444 9.6816V9.6832ZM142.701 19.056C144.192 19.056 144.835 17.676 144.835 16.0352V10.2032H149.462V16.608C149.462 20.4352 147.251 23.612 142.701 23.612C138.15 23.612 135.94 20.436 135.94 16.608V10.2032H140.567V16.0352C140.567 17.6752 141.21 19.056 142.701 19.056ZM129.136 23.6376C126.231 23.6376 124.354 22.6224 123.248 20.644L126.591 18.7432C127.053 19.576 127.747 19.9928 128.904 19.9928C129.855 19.9928 130.292 19.6544 130.292 19.2376C130.292 17.6496 123.505 19.264 123.505 14.2136C123.505 11.7656 125.562 9.7872 129.058 9.7872C132.117 9.7872 133.789 11.2968 134.534 12.7552L131.192 14.6816C130.91 13.9008 130.035 13.432 129.161 13.432C128.493 13.432 128.133 13.7184 128.133 14.1088C128.133 15.7232 134.92 14.2392 134.92 19.1336C134.92 21.8672 132.272 23.6376 129.136 23.6376ZM112.968 29.2096H108.34V16.6864C108.34 12.7024 111.297 9.8128 115.41 9.8128C119.421 9.8128 122.48 12.9112 122.48 16.6864C122.48 20.852 119.755 23.612 115.667 23.612C114.716 23.612 113.765 23.3256 112.968 22.8824V29.2096ZM115.41 19.212C116.876 19.212 117.853 18.0664 117.853 16.712C117.853 15.3328 116.876 14.2128 115.41 14.2128C113.945 14.2128 112.968 15.3328 112.968 16.7128C112.968 18.0664 113.945 19.212 115.41 19.212ZM103.705 8.824C102.188 8.824 100.929 7.548 100.929 6.012C100.929 4.476 102.188 3.2 103.705 3.2C105.222 3.2 106.482 4.476 106.482 6.012C106.482 7.548 105.222 8.824 103.705 8.824ZM101.391 10.2032H106.019V23.2216H101.391V10.2032ZM92.5126 23.612C88.5019 23.612 85.4427 20.488 85.4427 16.6864C85.4427 12.9112 88.5019 9.7872 92.5126 9.7872C96.5233 9.7872 99.5826 12.9112 99.5826 16.6864C99.5826 20.488 96.5233 23.612 92.5126 23.612ZM92.5126 19.212C93.9782 19.212 94.955 18.0664 94.955 16.712C94.955 15.3328 93.9782 14.1872 92.5126 14.1872C91.0471 14.1872 90.0703 15.3328 90.0703 16.712C90.0703 18.0664 91.0471 19.212 92.5126 19.212ZM76.7047 29.6C73.5174 29.6 71.2032 28.168 70.0208 25.616L73.8511 23.5336C74.2624 24.4192 75.0335 25.3304 76.6272 25.3304C78.2992 25.3304 79.4041 24.2624 79.533 22.388C78.9161 22.9352 77.9386 23.3512 76.4738 23.3512C72.8997 23.3512 70.02 20.5656 70.02 16.66C70.02 12.8856 73.08 9.8128 77.0907 9.8128C81.2042 9.8128 84.1606 12.7032 84.1606 16.6864V21.8416C84.1606 26.528 80.9464 29.6 76.7047 29.6ZM77.0132 18.952C78.4012 18.952 79.4555 17.988 79.4555 16.556C79.4555 15.1504 78.402 14.2128 77.0132 14.2128C75.6505 14.2128 74.5709 15.1504 74.5709 16.5568C74.5709 17.9888 75.6505 18.9512 77.0132 18.9512V18.952ZM62.171 23.612C58.1603 23.612 55.1003 20.488 55.1003 16.6864C55.1003 12.9112 58.1603 9.7872 62.171 9.7872C66.1809 9.7872 69.2409 12.9112 69.2409 16.6864C69.2409 20.488 66.1817 23.612 62.171 23.612ZM62.171 19.212C63.6365 19.212 64.6133 18.0664 64.6133 16.712C64.6133 15.3328 63.6365 14.1872 62.171 14.1872C60.7054 14.1872 59.7287 15.3328 59.7287 16.712C59.7287 18.0664 60.7054 19.212 62.171 19.212ZM46.6739 5.648V18.7952H54.3355V23.2216H46.0309C43.1006 23.2216 41.9182 21.6592 41.9182 19.1856V5.648H46.6739Z" fill="white"/>
</g>
<defs>
<clipPath id="clip0_1_559">
<rect width="174" height="32" fill="white"/>
</clipPath>
</defs>
</svg>
