<svg width="58" height="58" viewBox="0 0 58 58" fill="none" xmlns="http://www.w3.org/2000/svg">
<path d="M3.85244 3.98158C6.33511 1.4201 9.84524 0 13.9592 0H44.0408C48.1549 0 51.6649 1.4201 54.1477 3.98158C56.6289 6.5416 58 10.1549 58 14.3856V30.3295C58 34.5605 56.6289 38.1736 54.1477 40.7337C51.9178 43.0342 48.8592 44.4142 45.2787 44.6713H36.4092C36.1863 44.6713 36.0054 44.8551 36.0054 45.0817C36.0054 45.2589 36.1173 45.4158 36.2825 45.4714L39.2482 46.4674C41.4634 47.2114 42.9592 49.3153 42.9592 51.6864V56.9008C42.9592 57.3046 42.7415 57.6758 42.3919 57.8679C42.0425 58.0599 41.6175 58.0414 41.285 57.8202L22.9506 45.6138C22.0699 45.0274 21.0402 44.7153 19.9875 44.7153H13.9592C9.84524 44.7153 6.33511 43.2951 3.85244 40.7337C1.37118 38.1736 0 34.5605 0 30.3295V14.3856C0 10.1549 1.37118 6.5416 3.85244 3.98158Z" fill="url(#paint0_linear_1_114)"/>
<defs>
<linearGradient id="paint0_linear_1_114" x1="18.5346" y1="-0.144647" x2="68.3847" y2="133.651" gradientUnits="userSpaceOnUse">
<stop stop-color="#A25EFF"/>
<stop offset="1" stop-color="#162A5B" stop-opacity="0"/>
</linearGradient>
</defs>
</svg>
