<svg width="136" height="136" viewBox="0 0 136 136" fill="none" xmlns="http://www.w3.org/2000/svg">
<rect opacity="0.45" x="0.5" y="0.5" width="135" height="135" rx="24.5" stroke="white"/>
<path d="M42.8524 42.9816C45.3351 40.4201 48.8452 39 52.9592 39H83.0408C87.1549 39 90.6649 40.4201 93.1477 42.9816C95.6289 45.5416 97 49.1549 97 53.3856V69.3295C97 73.5605 95.6289 77.1736 93.1477 79.7337C90.9178 82.0342 87.8592 83.4142 84.2787 83.6713H75.4092C75.1863 83.6713 75.0054 83.8551 75.0054 84.0817C75.0054 84.2589 75.1173 84.4158 75.2825 84.4714L78.2482 85.4674C80.4634 86.2114 81.9592 88.3153 81.9592 90.6864V95.9008C81.9592 96.3046 81.7415 96.6758 81.3919 96.8679C81.0425 97.0599 80.6175 97.0414 80.285 96.8202L61.9506 84.6138C61.0699 84.0274 60.0402 83.7153 58.9875 83.7153H52.9592C48.8452 83.7153 45.3351 82.2951 42.8524 79.7337C40.3712 77.1736 39 73.5605 39 69.3295V53.3856C39 49.1549 40.3712 45.5416 42.8524 42.9816Z" fill="url(#paint0_linear_1_111)"/>
<defs>
<linearGradient id="paint0_linear_1_111" x1="57.5346" y1="38.8554" x2="107.385" y2="172.651" gradientUnits="userSpaceOnUse">
<stop stop-color="#A25EFF"/>
<stop offset="1" stop-color="#162A5B" stop-opacity="0"/>
</linearGradient>
</defs>
</svg>
