<svg width="256" height="214" viewBox="0 0 256 214" fill="none" xmlns="http://www.w3.org/2000/svg">
<g clip-path="url(#clip0_1_162)">
<path d="M256 15.6146V5.63134C256 2.81555 253.696 0.511719 250.88 0.511719H149.35C146.534 0.511719 144.23 2.81555 144.23 5.63134V107.307C144.23 110.123 146.534 112.427 149.35 112.427H174.95C180.429 112.427 185.344 108.894 187.085 103.672L192.819 86.5213C192.973 86.0605 193.382 85.7534 193.894 85.7534C194.509 85.7534 195.021 86.2653 195.021 86.8797V111.915C193.792 124.816 189.696 134.236 183.142 140.687C175.821 147.906 164.761 152.206 149.145 152.769C146.381 152.872 144.23 155.124 144.23 157.889V208.368C144.23 209.802 144.845 211.235 145.92 212.208C146.995 213.181 148.48 213.641 149.913 213.488C184.422 209.546 211.097 198.897 229.12 180.978M49.1005 86.5213C49.2541 86.0605 49.6637 85.7534 50.1757 85.7534C50.7901 85.7534 51.3021 86.2653 51.3021 86.8797V111.915C50.0733 124.816 45.9773 134.236 39.4237 140.687C32.1021 147.906 21.0429 152.206 5.42692 152.769C2.66212 152.872 0.511719 155.124 0.511719 157.889V208.368C0.511719 209.802 1.12612 211.235 2.20132 212.208C3.27652 213.181 4.76132 213.641 6.19492 213.488C40.7037 209.546 67.3789 198.897 85.4013 180.978C103.526 162.957 112.281 138.178 112.281 107.358V5.63134C112.281 2.81555 109.977 0.511719 107.161 0.511719H5.63172C2.81572 0.511719 0.511719 2.81555 0.511719 5.63134V107.307C0.511719 110.123 2.81572 112.427 5.63172 112.427H31.2317C36.7101 112.427 41.6253 108.894 43.3661 103.672L49.1005 86.5213Z" stroke="url(#paint0_linear_1_162)" stroke-width="2" stroke-linecap="round" stroke-linejoin="round"/>
</g>
<defs>
<linearGradient id="paint0_linear_1_162" x1="11.4995" y1="-54.0002" x2="256" y2="287.5" gradientUnits="userSpaceOnUse">
<stop stop-color="#1DBDFF"/>
<stop offset="1" stop-color="#130B32"/>
</linearGradient>
<clipPath id="clip0_1_162">
<rect width="256" height="214" fill="white"/>
</clipPath>
</defs>
</svg>
