<svg width="1440" height="828" viewBox="0 0 1440 828" fill="none" xmlns="http://www.w3.org/2000/svg">
<path d="M-283 753.558H1593M-283 385.268H1593M-283 692.177H1593M-283 323.886H1593M-283 630.795H1593M-283 262.505H1593M-283 569.413H1593M-283 201.123H1593M-283 508.032H1593M-283 139.741H1593M-283 446.65H1593M-283 78.3596H1593M263.078 828L263.078 0M-105.329 828L-105.329 0M201.677 828L201.677 0M-166.73 828L-166.73 0M140.276 828L140.276 0M-228.131 828L-228.131 0M78.8747 828L78.8746 0M17.4735 828L17.4735 0M-43.9276 828L-43.9276 0M992.053 828L992.053 0M623.646 828L623.646 0M930.652 828L930.652 0M562.245 828L562.245 0M869.251 828L869.251 0M500.844 828L500.844 0M807.85 828L807.85 0M439.443 828L439.443 0M746.449 828L746.448 0M378.042 828L378.042 0M685.047 828L685.047 0M316.641 828L316.641 0M1352.62 828L1352.62 0M1291.22 828L1291.22 0M1229.82 828L1229.82 0M1536.82 828L1536.82 0M1168.42 828L1168.42 0M1475.42 828L1475.42 0M1107.02 828L1107.02 0M1414.02 828L1414.02 0M1045.62 828L1045.62 0" stroke="url(#paint0_radial_1_82)" stroke-opacity="0.5"/>
<defs>
<radialGradient id="paint0_radial_1_82" cx="0" cy="0" r="1" gradientUnits="userSpaceOnUse" gradientTransform="translate(655 392) rotate(90) scale(411.5 932.336)">
<stop stop-color="white" stop-opacity="0.25"/>
<stop offset="1" stop-color="#19174F" stop-opacity="0"/>
</radialGradient>
</defs>
</svg>
